<svg xmlns="http://www.w3.org/2000/svg" xmlns:xlink="http://www.w3.org/1999/xlink" fill="none" version="1.1" width="32" height="32" viewBox="0 0 32 32"><g><g><g><rect x="0" y="0" width="32" height="32" rx="6.90000057220459" fill="#FFFFFF" fill-opacity="1"/></g><g><g><path d="M13.45897,15.94480125C15.08954,17.48802125,17.24425,18.346991250000002,19.48625,18.346991250000002L20.98585,18.346991250000002L24.47985,21.63725125L26.76565,23.80653125L23.31525,23.80653125L15.38075,23.80653125C9.76106,23.80653125,5.21875,19.24963125,5.21875,13.64453125L10.99855,13.64453125L13.45897,15.94480125Z" fill="#6F00FF" fill-opacity="1"/></g><g><path d="M20.66555,12.363710000000001Q18.58365,14.48928,16.19605,14.41649C15.07498,13.89237,13.83749,13.61576,12.57089,13.61576L10.99855,13.61576L5.21875,8.15625L16.603650000000002,8.15625C19.58815,8.15625,22.26695,9.43741,24.11595,11.47563C25.76105,13.28091,26.76565,15.68309,26.76565,18.31825L25.32425,18.31825L20.98585,18.31825L19.136850000000003,16.571170000000002Q21.58275,14.88237,20.66555,12.363710000000001Z" fill="#6F00FF" fill-opacity="1"/></g></g><g><path d="M16.19745,14.41109Q18.57051,14.46932,20.66697,12.34375Q21.5842,14.862400000000001,19.1383,16.56577L20.98726,18.31281L19.48771,18.31281C17.24568,18.31281,15.09099,17.45385,13.46042,15.91063L11,13.5958L12.58689,13.5958C13.838940000000001,13.5958,15.07643,13.88697,16.19745,14.41109Z" fill="#2AFCF1" fill-opacity="1" style="mix-blend-mode:passthrough"/></g></g></g></svg>